<?xml version="1.0" standalone="no"?>
<!DOCTYPE svg PUBLIC "-//W3C//DTD SVG 20010904//EN"
 "http://www.w3.org/TR/2001/REC-SVG-20010904/DTD/svg10.dtd">
<svg version="1.0" xmlns="http://www.w3.org/2000/svg"
 width="84.000000pt" height="69.000000pt" viewBox="0 0 84.000000 69.000000"
 preserveAspectRatio="xMidYMid meet">

<g transform="translate(0.000000,69.000000) scale(0.100000,-0.100000)"
fill="#000000" stroke="none">
<path d="M440 551 c0 -10 -11 -12 -44 -8 -52 7 -102 -7 -116 -33 -15 -28 -13
-29 27 -9 48 24 99 24 145 -1 l37 -20 -11 28 c-15 36 -38 62 -38 43z"/>
<path d="M305 471 c-40 -24 -65 -63 -65 -100 0 -46 15 -45 27 2 14 50 46 83
100 102 l38 14 -35 1 c-19 0 -49 -8 -65 -19z"/>
<path d="M322 415 c-48 -54 -54 -134 -15 -177 30 -33 44 -21 21 17 -26 45 -21
122 11 166 29 40 20 37 -17 -6z"/>
<path d="M620 430 c0 -48 -54 -114 -106 -130 l-29 -8 28 -1 c36 -1 80 21 106
55 22 28 28 88 11 99 -5 3 -10 -3 -10 -15z"/>
<path d="M340 317 c0 -38 24 -81 59 -106 30 -22 85 -28 96 -11 3 6 -4 10 -18
10 -38 0 -90 41 -114 90 -21 40 -23 42 -23 17z"/>
<path d="M404 281 c51 -54 142 -66 187 -25 33 30 23 46 -13 24 -48 -29 -115
-27 -164 6 l-39 26 29 -31z"/>
<path d="M131 103 c1 -21 3 -30 6 -20 6 21 29 22 41 1 6 -11 9 -6 10 20 1 34
-1 36 -28 36 -28 0 -30 -2 -29 -37z m49 17 c0 -5 -9 -10 -20 -10 -11 0 -20 5
-20 10 0 6 9 10 20 10 11 0 20 -4 20 -10z"/>
<path d="M222 108 c2 -28 8 -34 31 -36 32 -4 37 15 5 21 l-23 4 23 2 c29 1 29
21 0 22 -22 1 -22 1 2 9 23 8 23 8 -8 9 -32 1 -33 -1 -30 -31z"/>
<path d="M380 110 c0 -16 5 -30 10 -30 6 0 10 5 10 10 0 6 12 3 28 -7 l27 -17
-19 22 c-16 19 -17 24 -5 38 13 16 12 16 -8 5 -15 -7 -23 -8 -23 -1 0 5 -4 10
-10 10 -5 0 -10 -13 -10 -30z"/>
<path d="M487 134 c-26 -26 9 -70 49 -60 20 5 25 12 22 34 -2 22 -9 28 -33 30
-17 2 -34 0 -38 -4z m61 -25 c2 -9 -4 -19 -12 -22 -19 -8 -51 17 -42 32 11 17
50 9 54 -10z"/>
<path d="M595 130 c-3 -5 5 -15 19 -21 30 -14 25 -29 -7 -22 -17 5 -20 3 -10
-7 13 -14 63 -6 63 10 0 6 -12 16 -26 23 l-27 12 24 6 c24 7 24 7 -3 8 -15 1
-30 -3 -33 -9z"/>
<path d="M693 133 c10 -3 17 -14 17 -28 0 -13 5 -27 10 -30 6 -4 10 6 10 24 0
20 6 31 18 34 9 3 -3 5 -28 5 -25 0 -37 -2 -27 -5z"/>
<path d="M318 93 c6 -2 18 -2 25 0 6 3 1 5 -13 5 -14 0 -19 -2 -12 -5z"/>
</g>
</svg>
