<svg width="52" height="52" viewBox="0 0 52 52" fill="none" xmlns="http://www.w3.org/2000/svg">
<path d="M26 0C11.648 0 0 11.648 0 26C0 40.352 11.648 52 26 52C40.352 52 52 40.352 52 26C52 11.648 40.352 0 26 0ZM26 10.4C31.018 10.4 35.1 14.482 35.1 19.5C35.1 24.518 31.018 28.6 26 28.6C20.982 28.6 16.9 24.518 16.9 19.5C16.9 14.482 20.982 10.4 26 10.4ZM26 46.8C20.722 46.8 14.482 44.668 10.036 39.312C14.5907 35.7402 20.2118 33.799 26 33.799C31.7882 33.799 37.4093 35.7402 41.964 39.312C37.518 44.668 31.278 46.8 26 46.8Z" fill="#8A8A8A"/>
</svg>
